<svg width="611" height="121" viewBox="0 0 611 121" fill="none" xmlns="http://www.w3.org/2000/svg">
<path d="M375.276 3.36781C432.345 3.36781 489.429 3.78654 546.495 3.26059C566.647 3.07487 586.934 1.1583 607.07 1.43798C615.44 1.55423 603.646 7.15644 601.709 8.19238C582.097 18.6826 561.068 26.4191 541.456 37.0326C497.046 61.0663 449.871 73.1782 401.007 85.0639C385.071 88.9403 370.45 88.2803 353.941 88.2803C223.267 88.2803 94.3029 97.1104 -35.1339 115.834C-35.1621 115.838 -50.906 118.155 -54.5394 118.836C-55.7733 119.067 -52.0423 119.158 -50.7869 119.158C-18.0513 119.158 14.6843 119.158 47.4199 119.158C108.886 119.158 173.856 124.412 234.399 111.438" stroke="black" stroke-linecap="round" stroke-linejoin="round"/>
</svg>
