<svg width="140" height="61" viewBox="0 0 140 61" fill="none" xmlns="http://www.w3.org/2000/svg">
<path d="M120.5 30.5C120.5 38.6673 114.743 46.1572 105.227 51.6334C95.7248 57.1018 82.5641 60.5 68 60.5C53.4359 60.5 40.2752 57.1018 30.7727 51.6334C21.2568 46.1572 15.5 38.6673 15.5 30.5C15.5 22.3327 21.2568 14.8428 30.7727 9.36661C40.2752 3.89822 53.4359 0.5 68 0.5C82.5641 0.5 95.7248 3.89822 105.227 9.36661C114.743 14.8428 120.5 22.3327 120.5 30.5Z" stroke="black"/>
<path d="M3.148 24.398H2.734C2.266 25.856 1.798 26.396 0.34 27.044V27.386H1.636V32.408C1.636 33.38 1.672 33.758 1.852 34.208C2.086 34.784 2.662 35.126 3.364 35.126C4.228 35.126 4.894 34.604 5.452 33.506L5.2 33.29C4.804 33.848 4.462 34.064 4.012 34.064C3.832 34.064 3.652 33.992 3.526 33.884C3.22 33.632 3.148 33.29 3.148 32.48V27.386H4.858V26.72H3.148V24.398ZM13.42 33.65C13.132 33.938 12.844 34.082 12.592 34.082C12.304 34.082 12.232 33.902 12.232 33.182V29.168C12.232 27.368 11.476 26.594 9.69396 26.594C8.03796 26.594 6.63396 27.548 6.63396 28.664C6.63396 29.15 6.99396 29.546 7.40796 29.546C7.82196 29.546 8.14596 29.204 8.14596 28.754V28.52V28.25C8.14596 27.566 8.66796 27.116 9.42396 27.116C9.94596 27.116 10.342 27.332 10.54 27.692C10.702 28.052 10.738 28.286 10.738 29.24V29.636C9.06396 30.266 8.57796 30.464 7.87596 30.86C6.88596 31.418 6.38196 32.156 6.38196 33.092C6.38196 34.244 7.17396 35.126 8.19996 35.126C9.00996 35.126 9.72996 34.766 10.738 33.83C10.846 34.694 11.188 35.126 11.764 35.126C12.484 35.126 13.096 34.712 13.654 33.848L13.42 33.65ZM10.738 33.2C10.234 33.758 9.74796 34.01 9.18996 34.01C8.43396 34.01 7.91196 33.434 7.91196 32.624C7.91196 31.616 8.46996 31.148 10.738 30.23V33.2ZM15.0992 35.054C15.1532 34.856 15.2072 34.802 15.3872 34.802C15.4772 34.802 15.5672 34.82 15.6932 34.856C16.5392 35.072 16.8632 35.126 17.3672 35.126C18.8432 35.126 19.9052 34.154 19.9052 32.786C19.9052 31.76 19.3112 30.95 18.0332 30.248L17.1152 29.762C16.1792 29.258 15.8012 28.826 15.8012 28.268C15.8012 27.638 16.3052 27.188 16.9712 27.188C18.0512 27.188 18.7172 27.89 18.9332 29.276H19.2572L19.2392 26.666H18.9152C18.8612 26.81 18.7892 26.882 18.6812 26.882C18.6272 26.882 18.6092 26.882 18.2492 26.792C17.6732 26.63 17.3852 26.594 17.0072 26.594C15.6032 26.594 14.5772 27.566 14.5772 28.916C14.5772 29.546 14.8292 30.086 15.3692 30.572C15.6932 30.86 15.7292 30.878 16.5392 31.328L17.2232 31.724C18.1412 32.228 18.5552 32.75 18.5552 33.344C18.5552 33.992 18.0332 34.46 17.3312 34.46C16.1612 34.46 15.4052 33.65 15.0992 32.066H14.7932V35.054H15.0992ZM23.3453 24.398H22.9313C22.4633 25.856 21.9953 26.396 20.5373 27.044V27.386H21.8333V32.408C21.8333 33.38 21.8693 33.758 22.0493 34.208C22.2833 34.784 22.8593 35.126 23.5613 35.126C24.4253 35.126 25.0913 34.604 25.6493 33.506L25.3973 33.29C25.0013 33.848 24.6593 34.064 24.2093 34.064C24.0293 34.064 23.8493 33.992 23.7233 33.884C23.4173 33.632 23.3453 33.29 23.3453 32.48V27.386H25.0553V26.72H23.3453V24.398ZM32.7587 31.598C32.1107 32.948 31.2467 33.65 30.2207 33.65C28.7627 33.65 27.7367 32.174 27.7007 30.014H32.7587C32.7227 27.908 31.5707 26.594 29.7887 26.594C27.8267 26.594 26.3507 28.43 26.3507 30.86C26.3507 33.29 27.7727 35.126 29.6807 35.126C31.3007 35.126 32.5607 33.866 33.0107 31.814L32.7587 31.598ZM27.7187 29.294C27.8627 28.088 28.4747 27.386 29.3747 27.386C30.2927 27.386 30.8507 28.088 30.8867 29.294H27.7187ZM33.6389 26.72V27.386H34.9169V32.786C34.9169 34.406 34.7729 34.658 33.8909 34.694H33.6389V35H37.6889V34.694H37.3829C36.4829 34.658 36.3389 34.406 36.3389 32.786V27.386H37.8869V26.72H36.3389C36.3569 25.046 36.3569 25.046 36.4289 24.614C36.5189 23.876 36.8249 23.516 37.3829 23.516C37.7609 23.516 38.1029 23.714 38.3909 24.11C38.9849 24.92 39.0029 24.938 39.3449 24.938C39.7049 24.938 40.0649 24.596 40.0649 24.236C40.0649 23.498 39.0929 22.814 38.0309 22.814C36.9869 22.814 36.1049 23.264 35.5649 24.074C35.1509 24.704 34.9709 25.388 34.9169 26.72H33.6389ZM46.2496 26.72H43.3516V27.026H43.7836C44.6836 27.062 44.8276 27.314 44.8276 28.934V32.876C43.8016 33.758 43.4596 33.938 42.8476 33.938C41.9296 33.938 41.5696 33.38 41.5696 31.958V26.72H38.8696V27.026H39.1216C40.0036 27.062 40.1476 27.314 40.1476 28.934V31.994C40.1476 32.984 40.2196 33.506 40.4356 34.01C40.7416 34.73 41.3356 35.126 42.1636 35.126C42.7936 35.126 43.4056 34.874 43.9096 34.424C44.1976 34.172 44.2876 34.082 44.8276 33.488V35.18C46.0696 34.658 46.2676 34.586 47.5816 34.172L47.4736 33.848C47.2576 33.92 47.1316 33.938 46.9696 33.938C46.3576 33.938 46.2496 33.596 46.2496 31.832V26.72ZM50.8057 22.706C49.5817 23.318 49.3837 23.408 48.0517 23.966L48.1597 24.218L48.3577 24.164C48.4657 24.11 48.6097 24.092 48.7177 24.092C48.9337 24.092 49.1137 24.164 49.2217 24.308C49.3657 24.488 49.3837 24.632 49.3837 25.37V32.786C49.3837 34.406 49.2397 34.658 48.3397 34.694H48.0517V35H52.1377V34.694H51.8497C50.9497 34.658 50.8057 34.406 50.8057 32.786V22.706ZM60.6136 35.18H60.8656L62.9536 30.014L64.8436 35.18H65.1316L67.1116 29.564C68.0116 27.188 68.0116 27.17 68.6056 27.044L68.7856 27.026V26.72H66.2476V27.044H66.4456C66.8236 27.044 67.0216 27.188 67.0216 27.44C67.0216 27.584 66.9316 27.89 66.7156 28.538L65.3296 32.444L63.9256 28.538C63.7816 28.16 63.7096 27.782 63.7096 27.53C63.7096 27.188 63.9076 27.044 64.3936 27.044H64.5016V26.72H61.0816V27.044H61.2616C61.8016 27.062 61.8916 27.17 62.3416 28.358L62.5756 29.006L61.1536 32.444L59.6596 28.52C59.4796 28.016 59.3896 27.692 59.3896 27.476C59.3896 27.17 59.5876 27.044 60.0016 27.044H60.1636V26.72H56.8516V27.026L56.9776 27.044C57.5716 27.116 57.5896 27.134 58.2016 28.772L60.6136 35.18ZM71.6885 22.706C70.4465 23.318 70.2665 23.408 68.9345 23.966L69.0425 24.218L69.2405 24.164C69.3665 24.11 69.4925 24.092 69.6005 24.092C70.1405 24.092 70.2665 24.344 70.2665 25.37V32.786C70.2665 34.406 70.1225 34.658 69.2225 34.694H68.9345V35H72.9845V34.694H72.7325C71.8325 34.658 71.6885 34.406 71.6885 32.786V28.808C72.6065 27.944 73.1465 27.638 73.7765 27.638C74.2625 27.638 74.7485 27.998 74.9105 28.466C75.0185 28.772 75.0725 29.276 75.0725 29.816V32.786C75.0725 34.406 74.9285 34.658 74.0465 34.694H73.8485V35H77.7005V34.694H77.5205C76.6385 34.658 76.4945 34.406 76.4945 32.786V29.816C76.4945 28.754 76.4045 28.178 76.1345 27.62C75.8465 27.008 75.1805 26.594 74.4785 26.594C73.5245 26.594 72.8585 26.954 71.6885 28.142V22.706ZM81.0581 26.486C79.8161 27.098 79.6361 27.188 78.3041 27.746L78.4121 27.998L78.6101 27.926C78.7361 27.89 78.8621 27.872 78.9881 27.872C79.5101 27.872 79.6361 28.106 79.6361 29.132V32.786C79.6001 34.478 79.5281 34.64 78.6101 34.694H78.2861V35H82.3721V34.694H82.0841C81.2021 34.658 81.0581 34.406 81.0581 32.786V26.486ZM80.2301 22.994C79.7081 22.994 79.2941 23.408 79.2941 23.912C79.2941 24.434 79.7081 24.848 80.2121 24.848C80.7341 24.848 81.1481 24.434 81.1481 23.912C81.1481 23.408 80.7341 22.994 80.2301 22.994ZM85.484 24.398H85.07C84.602 25.856 84.134 26.396 82.676 27.044V27.386H83.972V32.408C83.972 33.38 84.008 33.758 84.188 34.208C84.422 34.784 84.998 35.126 85.7 35.126C86.564 35.126 87.23 34.604 87.788 33.506L87.536 33.29C87.14 33.848 86.798 34.064 86.348 34.064C86.168 34.064 85.988 33.992 85.862 33.884C85.556 33.632 85.484 33.29 85.484 32.48V27.386H87.194V26.72H85.484V24.398ZM94.8974 31.598C94.2494 32.948 93.3854 33.65 92.3594 33.65C90.9014 33.65 89.8754 32.174 89.8394 30.014H94.8974C94.8614 27.908 93.7094 26.594 91.9274 26.594C89.9654 26.594 88.4894 28.43 88.4894 30.86C88.4894 33.29 89.9114 35.126 91.8194 35.126C93.4394 35.126 94.6994 33.866 95.1494 31.814L94.8974 31.598ZM89.8574 29.294C90.0014 28.088 90.6134 27.386 91.5134 27.386C92.4314 27.386 92.9894 28.088 93.0254 29.294H89.8574ZM101.443 35.054C101.497 34.856 101.551 34.802 101.731 34.802C101.821 34.802 101.911 34.82 102.037 34.856C102.883 35.072 103.207 35.126 103.711 35.126C105.187 35.126 106.249 34.154 106.249 32.786C106.249 31.76 105.655 30.95 104.377 30.248L103.459 29.762C102.523 29.258 102.145 28.826 102.145 28.268C102.145 27.638 102.649 27.188 103.315 27.188C104.395 27.188 105.061 27.89 105.277 29.276H105.601L105.583 26.666H105.259C105.205 26.81 105.133 26.882 105.025 26.882C104.971 26.882 104.953 26.882 104.593 26.792C104.017 26.63 103.729 26.594 103.351 26.594C101.947 26.594 100.921 27.566 100.921 28.916C100.921 29.546 101.173 30.086 101.713 30.572C102.037 30.86 102.073 30.878 102.883 31.328L103.567 31.724C104.485 32.228 104.899 32.75 104.899 33.344C104.899 33.992 104.377 34.46 103.675 34.46C102.505 34.46 101.749 33.65 101.443 32.066H101.137V35.054H101.443ZM109.728 34.55C110.43 34.982 110.862 35.126 111.438 35.126C113.49 35.126 115.236 33.092 115.236 30.698C115.236 28.448 113.886 26.594 112.266 26.594C111.366 26.594 110.736 26.99 109.728 28.214V26.486C108.486 27.098 108.306 27.188 106.974 27.746L107.082 27.998L107.262 27.926C107.352 27.89 107.514 27.872 107.622 27.872C108.126 27.872 108.306 28.196 108.306 29.132V35.72L108.27 36.404C108.234 36.908 108.234 36.944 108.18 37.07C108.036 37.484 107.802 37.628 107.244 37.628H106.92V37.934H111.024V37.628H110.808C109.908 37.61 109.746 37.322 109.728 35.72V34.55ZM109.728 29.078C110.52 28.124 110.808 27.926 111.474 27.926C112.77 27.926 113.616 29.24 113.616 31.22C113.616 33.146 112.734 34.478 111.438 34.478C110.88 34.478 110.34 34.208 110.034 33.776C109.8 33.416 109.728 33.056 109.728 32.102V29.078ZM123.547 33.65C123.259 33.938 122.971 34.082 122.719 34.082C122.431 34.082 122.359 33.902 122.359 33.182V29.168C122.359 27.368 121.603 26.594 119.821 26.594C118.165 26.594 116.761 27.548 116.761 28.664C116.761 29.15 117.121 29.546 117.535 29.546C117.949 29.546 118.273 29.204 118.273 28.754V28.52V28.25C118.273 27.566 118.795 27.116 119.551 27.116C120.073 27.116 120.469 27.332 120.667 27.692C120.829 28.052 120.865 28.286 120.865 29.24V29.636C119.191 30.266 118.705 30.464 118.003 30.86C117.013 31.418 116.509 32.156 116.509 33.092C116.509 34.244 117.301 35.126 118.327 35.126C119.137 35.126 119.857 34.766 120.865 33.83C120.973 34.694 121.315 35.126 121.891 35.126C122.611 35.126 123.223 34.712 123.781 33.848L123.547 33.65ZM120.865 33.2C120.361 33.758 119.875 34.01 119.317 34.01C118.561 34.01 118.039 33.434 118.039 32.624C118.039 31.616 118.597 31.148 120.865 30.23V33.2ZM131.005 31.67C130.555 32.93 129.673 33.632 128.503 33.632C126.991 33.632 126.019 32.354 126.019 30.356C126.019 28.502 126.829 27.278 128.071 27.278C128.755 27.278 129.061 27.584 129.169 28.34C129.259 28.97 129.583 29.276 130.141 29.276C130.663 29.276 131.023 28.952 131.023 28.484C131.023 27.44 129.799 26.594 128.305 26.594C126.073 26.594 124.507 28.394 124.507 30.932C124.507 32.066 124.813 33.056 125.371 33.794C126.019 34.604 127.009 35.126 127.963 35.126C129.511 35.126 130.663 33.992 131.311 31.814L131.005 31.67ZM138.86 31.598C138.212 32.948 137.348 33.65 136.322 33.65C134.864 33.65 133.838 32.174 133.802 30.014H138.86C138.824 27.908 137.672 26.594 135.89 26.594C133.928 26.594 132.452 28.43 132.452 30.86C132.452 33.29 133.874 35.126 135.782 35.126C137.402 35.126 138.662 33.866 139.112 31.814L138.86 31.598ZM133.82 29.294C133.964 28.088 134.576 27.386 135.476 27.386C136.394 27.386 136.952 28.088 136.988 29.294H133.82Z" fill="black"/>
</svg>
