<svg width="131" height="79" viewBox="0 0 131 79" fill="none" xmlns="http://www.w3.org/2000/svg">
<path d="M12.2298 57.6992L12.4463 57.6419L13.0655 52.7279L15.8646 56.7371L16.1121 56.6716L16.5361 51.3954C16.769 49.149 16.7649 49.1335 17.2467 48.8902L17.3972 48.8337L17.3276 48.5708L15.1468 49.1481L15.2205 49.4265L15.3906 49.3815C15.7154 49.2955 15.9183 49.3742 15.9756 49.5907C16.0084 49.7145 16.0006 49.9979 15.9624 50.6038L15.6599 54.2755L13.565 51.2384C13.3553 50.9464 13.2074 50.638 13.1501 50.4214C13.0723 50.1275 13.2097 49.9588 13.6273 49.8482L13.7201 49.8236L13.6464 49.5452L10.7076 50.3231L10.7813 50.6016L10.936 50.5606C11.4041 50.4533 11.506 50.5256 12.1629 51.4441L12.5114 51.9477L12.0715 55.2254L9.89515 52.1933C9.62584 51.8012 9.47481 51.5432 9.42568 51.3576C9.35607 51.0947 9.49756 50.9414 9.8533 50.8472L9.99251 50.8104L9.91881 50.532L7.07283 51.2853L7.14243 51.5482L7.2548 51.535C7.7816 51.4618 7.80116 51.4732 8.69962 52.7415L12.2298 57.6992ZM25.2375 52.8492C25.0556 53.1622 24.8409 53.3514 24.6243 53.4087C24.3768 53.4742 24.274 53.3359 24.1103 52.7172L23.1972 49.268C22.7878 47.7213 21.9621 47.2282 20.4309 47.6335C19.0079 48.0102 18.0184 49.1493 18.2723 50.1083C18.3828 50.5259 18.7822 50.7843 19.138 50.6901C19.4937 50.5959 19.6943 50.2284 19.592 49.8417L19.5388 49.6406L19.4774 49.4086C19.3218 48.8208 19.668 48.3154 20.3176 48.1435C20.7661 48.0247 21.1556 48.1203 21.4076 48.3846C21.6287 48.6571 21.7128 48.85 21.9298 49.6697L22.0199 50.01C20.7247 50.9321 20.3522 51.2128 19.839 51.7128C19.1152 52.4174 18.85 53.1662 19.0629 53.9705C19.3249 54.9604 20.2061 55.5382 21.0878 55.3048C21.7838 55.1206 22.3206 54.6475 22.9739 53.6139C23.2632 54.3318 23.6553 54.6252 24.1503 54.4942C24.769 54.3304 25.2007 53.8354 25.4837 52.9661L25.2375 52.8492ZM22.8306 53.0725C22.5244 53.6667 22.1641 53.9937 21.6846 54.1207C21.035 54.2926 20.4554 53.9164 20.2712 53.2204C20.0419 52.3542 20.4149 51.8251 22.155 50.5204L22.8306 53.0725ZM25.6458 42.6781C24.7178 43.4865 24.5836 43.6047 23.5659 44.3872L23.716 44.5792L23.8739 44.4877C23.9699 44.4127 24.0741 44.3685 24.1669 44.344C24.6309 44.2211 24.7965 44.409 25.0299 45.2907L26.7167 51.6632C27.0852 53.0552 27.0187 53.3045 26.2536 53.5402L26.0061 53.6057L26.0757 53.8686L29.5558 52.9474L29.4862 52.6845L29.2697 52.7418C28.4881 52.9156 28.3071 52.7318 27.9386 51.3397L27.0338 47.9215C27.6261 46.9702 28.0205 46.5845 28.5618 46.4412C28.9795 46.3306 29.479 46.5294 29.7246 46.8947C29.887 47.1331 30.0481 47.5539 30.1709 48.0179L30.8465 50.57C31.2149 51.9621 31.1485 52.2114 30.3988 52.4429L30.2287 52.488L30.2983 52.7509L33.6083 51.8747L33.5387 51.6118L33.384 51.6527C32.6179 51.8224 32.4369 51.6386 32.0684 50.2466L31.3928 47.6945C31.1513 46.7819 30.9429 46.3074 30.584 45.8893C30.1973 45.429 29.5308 45.2247 28.9276 45.3844C28.1078 45.6014 27.6174 46.0622 26.8823 47.3492L25.6458 42.6781ZM39.1379 47.2829C38.8881 48.5903 38.3054 49.3901 37.4237 49.6234C36.1709 49.9551 34.9535 48.9201 34.4313 47.0722L38.7776 45.9218C38.2676 44.1203 36.9788 43.2532 35.4476 43.6585C33.7616 44.1048 32.9109 46.0182 33.4636 48.1063C34.0164 50.1944 35.6559 51.4486 37.2954 51.0146C38.6875 50.6461 39.4836 49.2768 39.4035 47.4112L39.1379 47.2829ZM34.283 46.4495C34.1324 45.3804 34.4986 44.638 35.272 44.4333C36.0608 44.2244 36.6999 44.7008 37.0052 45.7289L34.283 46.4495ZM43.4341 49.009C43.3754 49.5376 43.3295 49.8642 43.2394 50.0867C43.112 50.4183 42.9291 50.6653 42.759 50.7104C42.6971 50.7268 42.6157 50.7318 42.4951 50.714C42.0984 50.6535 41.881 50.6449 41.6954 50.694C41.2778 50.8045 40.978 51.2977 41.0803 51.6844C41.195 52.1174 41.7532 52.3504 42.3254 52.1989C42.8513 52.0597 43.2467 51.7399 43.5651 51.1921C43.8267 50.7422 43.9918 50.053 44.1169 48.7124L44.692 43.1314C44.7952 41.8959 44.8739 41.693 45.3248 41.4578L45.4753 41.4014L45.4057 41.1384L43.1784 41.728L43.248 41.9909L43.3254 41.9705C43.7121 41.8681 43.95 41.9541 44.0319 42.2634C44.0892 42.48 44.0824 42.8293 44.0246 43.4239L43.687 47.0883L41.4406 44.0417C41.0849 43.5731 40.9339 43.3152 40.8888 43.1451C40.7988 42.8048 40.9589 42.5969 41.361 42.4904L41.4848 42.4577L41.4152 42.1947L38.3681 43.0013L38.4377 43.2642L38.6738 43.2183C39.2202 43.1564 39.2202 43.1564 40.6441 45.0967L43.4341 49.009ZM53.3776 44.9039C52.6815 45.0881 52.3631 45.0731 52.314 44.8875C52.2771 44.7483 52.3135 44.5731 52.5105 43.9417C52.8062 43.9958 53.0309 43.9695 53.464 43.8548C54.2374 43.6501 54.7182 43.3408 55.0758 42.8158C55.4561 42.2517 55.5748 41.5748 55.3988 40.9097C55.2964 40.523 55.165 40.2764 54.8411 39.8656L55.9238 39.579L55.7027 38.7438L53.8157 39.2433C53.2388 39.065 52.8235 39.059 52.2357 39.2146C50.8127 39.5913 50.0426 40.871 50.4151 42.2785C50.6403 43.1292 51.1557 43.6383 52.0283 43.8707C51.4655 44.9962 51.279 45.5421 51.3609 45.8515C51.4428 46.1608 51.693 46.2932 52.2011 46.2745C51.4109 47.7912 51.325 48.0292 51.4109 48.354C51.6075 49.0964 53.0591 49.3907 54.5285 49.0018C56.5547 48.4654 57.8572 46.9455 57.4846 45.538C57.329 44.9503 56.9123 44.564 56.2972 44.4289C55.8223 44.3229 55.4502 44.3552 54.6923 44.5558L53.3776 44.9039ZM52.2512 39.7733C52.9627 39.5849 53.8043 40.3883 54.1236 41.5948C54.3652 42.5073 54.1373 43.147 53.5031 43.3148C53.1783 43.4008 52.8744 43.3157 52.5719 43.0482C52.1479 42.697 51.7863 42.0811 51.6266 41.4779C51.3891 40.5807 51.617 39.9411 52.2512 39.7733ZM55.0157 45.7778C55.8746 45.5835 56.1726 45.5212 56.4137 45.5567C56.7362 45.5872 56.94 45.7318 56.9974 45.9484C57.198 46.7063 56.2554 47.5847 54.8633 47.9532C53.595 48.2889 52.6183 48.1006 52.4586 47.4974C52.3767 47.188 52.4236 46.9273 52.6979 46.2754C53.101 46.235 53.368 46.1808 53.7124 46.1062L55.0157 45.7778ZM64.087 42.5655C63.9051 42.8785 63.6903 43.0678 63.4738 43.1251C63.2263 43.1906 63.1235 43.0523 62.9597 42.4336L62.0467 38.9844C61.6373 37.4377 60.8116 36.9446 59.2804 37.3499C57.8574 37.7266 56.8679 38.8657 57.1218 39.8246C57.2323 40.2423 57.6317 40.5007 57.9875 40.4065C58.3432 40.3123 58.5438 39.9447 58.4415 39.5581L58.3882 39.357L58.3268 39.125C58.1713 38.5372 58.5174 38.0318 59.1671 37.8598C59.6156 37.7411 60.005 37.8366 60.2571 38.101C60.4782 38.3735 60.5623 38.5663 60.7793 39.3861L60.8694 39.7264C59.5742 40.6485 59.2016 40.9292 58.6885 41.4292C57.9647 42.1338 57.6995 42.8826 57.9124 43.6869C58.1744 44.6768 59.0556 45.2546 59.9372 45.0212C60.6333 44.837 61.1701 44.3638 61.8233 43.3303C62.1127 44.0481 62.5048 44.3416 62.9998 44.2105C63.6185 44.0468 64.0502 43.5518 64.3331 42.6825L64.087 42.5655ZM61.68 42.7889C61.3739 43.383 61.0136 43.7101 60.5341 43.837C59.8845 44.009 59.3049 43.6328 59.1207 42.9368C58.8914 42.0706 59.2644 41.5415 61.0045 40.2368L61.68 42.7889ZM67.5033 35.9511L65.0467 43.5528L70.9243 41.997L70.4203 39.7802L70.08 39.8703C70.4012 41.2086 70.1305 41.5617 68.4673 41.9688L66.7659 42.4192L69.2266 34.8329L63.8903 36.2455L64.3339 38.2962L64.6432 38.2143C64.4053 37.0029 64.5987 36.6704 65.6163 36.4506L67.5033 35.9511ZM72.2734 33.8112C71.3454 34.6196 71.2112 34.7379 70.1935 35.5204L70.3437 35.7124L70.4974 35.6055C70.5975 35.5459 70.7017 35.5017 70.81 35.4731C71.2585 35.3543 71.42 35.5268 71.6534 36.4084L72.4845 39.5482C72.8384 41.0104 72.8134 41.1659 72.0369 41.4212L71.7585 41.4949L71.8281 41.7578L75.3391 40.8284L75.2695 40.5655L75.0221 40.631C74.256 40.8006 74.0749 40.6169 73.7064 39.2248L72.2734 33.8112ZM70.7677 30.9989C70.3191 31.1177 70.0575 31.5676 70.1722 32.0007C70.2909 32.4492 70.7408 32.7108 71.1739 32.5962C71.6225 32.4774 71.884 32.0275 71.7653 31.579C71.6507 31.1459 71.2007 30.8843 70.7677 30.9989ZM76.2158 32.7677C75.2878 33.5761 75.1381 33.6985 74.1204 34.4809L74.286 34.6688L74.4398 34.5619C74.5244 34.5064 74.6286 34.4623 74.7368 34.4336C75.2009 34.3108 75.3624 34.4832 75.5957 35.3648L76.4269 38.5047C76.7953 39.8967 76.7289 40.146 75.9638 40.3817L75.6853 40.4554L75.7549 40.7183L79.2351 39.7971L79.1655 39.5342L78.8561 39.6161C78.1087 39.7312 78.0532 39.6465 77.6324 38.1194L76.7399 34.7475C77.3672 33.8035 77.7006 33.5001 78.2729 33.3486C79.1391 33.1194 79.4735 33.4446 79.8542 34.8831L80.5093 37.3578C80.9074 38.9241 80.8855 39.0292 80.1709 39.2681L79.877 39.3458L79.9466 39.6088L83.272 38.7285L83.2024 38.4656L82.9704 38.527C82.2312 38.673 82.1602 38.5925 81.7312 37.0344L81.0884 34.606C80.8141 33.5697 80.6376 33.153 80.2982 32.7463C79.9229 32.2664 79.2565 32.0621 78.6223 32.23C77.8644 32.4306 77.2439 33.0252 76.5884 34.1752L76.2158 32.7677ZM85.9133 36.2915C85.2172 36.4758 84.8988 36.4608 84.8496 36.2751C84.8128 36.1359 84.8492 35.9608 85.0462 35.3294C85.3419 35.3835 85.5666 35.3571 85.9997 35.2425C86.7731 35.0378 87.2539 34.7284 87.6115 34.2034C87.9918 33.6393 88.1105 32.9624 87.9345 32.2973C87.8321 31.9106 87.7006 31.6641 87.3767 31.2533L88.4594 30.9667L88.2384 30.1315L86.3513 30.631C85.7745 30.4526 85.3592 30.4467 84.7714 30.6023C83.3484 30.979 82.5782 32.2587 82.9508 33.6662C83.176 34.5169 83.6914 35.0259 84.564 35.2584C84.0012 36.3839 83.8147 36.9298 83.8966 37.2391C83.9785 37.5485 84.2287 37.6808 84.7368 37.6622C83.9466 39.1789 83.8606 39.4168 83.9466 39.7416C84.1432 40.4841 85.5948 40.7784 87.0642 40.3894C89.0904 39.8531 90.3928 38.3332 90.0203 36.9257C89.8647 36.3379 89.448 35.9517 88.8329 35.8166C88.358 35.7106 87.9859 35.7429 87.228 35.9435L85.9133 36.2915ZM84.7869 31.1609C85.4984 30.9726 86.34 31.776 86.6593 32.9824C86.9009 33.895 86.673 34.5346 86.0388 34.7025C85.714 34.7885 85.4101 34.7034 85.1076 34.4359C84.6836 34.0847 84.3219 33.4687 84.1623 32.8655C83.9248 31.9684 84.1527 31.3288 84.7869 31.1609ZM87.5514 37.1654C88.4103 36.9712 88.7083 36.9089 88.9494 36.9443C89.2719 36.9748 89.4757 37.1195 89.533 37.336C89.7337 38.0939 88.7911 38.9724 87.399 39.3409C86.1307 39.6766 85.154 39.4882 84.9943 38.885C84.9124 38.5757 84.9593 38.315 85.2336 37.6631C85.6367 37.6226 85.9037 37.5685 86.2481 37.4939L87.5514 37.1654ZM96.6227 33.9532C96.4407 34.2662 96.226 34.4554 96.0095 34.5128C95.762 34.5783 95.6592 34.44 95.4954 33.8213L94.5824 30.3721C94.173 28.8254 93.3473 28.3322 91.816 28.7375C90.393 29.1142 89.4036 30.2533 89.6574 31.2123C89.768 31.6299 90.1674 31.8883 90.5231 31.7942C90.8789 31.7 91.0795 31.3324 90.9772 30.9457L90.9239 30.7447L90.8625 30.5126C90.7069 29.9249 91.0531 29.4195 91.7028 29.2475C92.1513 29.1288 92.5407 29.2243 92.7927 29.4886C93.0138 29.7611 93.098 29.954 93.315 30.7738L93.4051 31.1141C92.1099 32.0362 91.7373 32.3169 91.2242 32.8168C90.5004 33.5215 90.2352 34.2703 90.4481 35.0746C90.7101 36.0645 91.5913 36.6422 92.4729 36.4089C93.169 36.2246 93.7058 35.7515 94.359 34.7179C94.6484 35.4358 95.0405 35.7292 95.5355 35.5982C96.1541 35.4344 96.5859 34.9395 96.8688 34.0701L96.6227 33.9532ZM94.2157 34.1766C93.9096 34.7707 93.5493 35.0978 93.0698 35.2247C92.4202 35.3967 91.8406 35.0205 91.6564 34.3244C91.4271 33.4583 91.8001 32.9292 93.5402 31.6245L94.2157 34.1766ZM98.3307 31.6308L98.6864 31.5367L97.8266 26.0376C97.6952 25.2283 97.6351 24.8139 97.6351 24.8139C97.4754 24.2106 97.0524 23.9254 96.5265 24.0646C95.9697 24.212 95.774 24.661 95.9624 25.3725C96.0279 25.62 96.1776 26.0603 96.3263 26.4347L98.3307 31.6308ZM98.8602 32.881C98.3807 33.0079 98.0923 33.4815 98.2192 33.9609C98.3461 34.4404 98.8352 34.7248 99.3147 34.5978C99.7787 34.475 100.063 33.986 99.9361 33.5065C99.8133 33.0425 99.3242 32.7581 98.8602 32.881Z" fill="black"/>
<path d="M34.4688 70.9873C65.6747 64.8147 99.1578 64.6923 113.591 31.8894C117.398 23.238 122.925 12.5497 129.527 5.94763" stroke="black" stroke-linecap="round" stroke-linejoin="round"/>
</svg>
